<?xml version="1.0" encoding="UTF-8"?>
<svg id="Layer_1" xmlns="http://www.w3.org/2000/svg" version="1.1" viewBox="0 0 1024 1024">
  <!-- Generator: Adobe Illustrator 29.2.1, SVG Export Plug-In . SVG Version: 2.1.0 Build 116)  -->
  <defs>
    <style>
      .st0 {
        fill: #00adef;
      }

      .st1 {
        fill: #fff300;
      }

      .st2 {
        fill: #ed008d;
      }
    </style>
  </defs>
  <circle class="st2" cx="396.41" cy="397.55" r="93.19"/>
  <circle class="st1" cx="402.6" cy="779.6" r="68.17"/>
  <circle class="st0" cx="303.22" cy="601.08" r="82.65"/>
  <path class="st0" d="M512,970.84c-219.24,0-397.61-178.36-397.61-397.61,0-193.5,138.11-358.19,328.4-391.6,12.6-2.22,24.61,6.21,26.82,18.81,2.21,12.6-6.21,24.61-18.81,26.82-168.08,29.51-290.07,175-290.07,345.96,0,193.69,157.58,351.27,351.27,351.27s351.27-157.58,351.27-351.27c0-170.96-121.99-316.45-290.07-345.96-12.61-2.21-21.03-14.22-18.81-26.82,2.21-12.6,14.2-21.03,26.82-18.81,190.29,33.41,328.4,198.1,328.4,391.6,0,219.24-178.36,397.61-397.61,397.61Z"/>
  <path class="st0" d="M446.8,227.62c-12.8,0-23.17-10.37-23.17-23.17V76.33c0-12.8,10.37-23.17,23.17-23.17s23.17,10.37,23.17,23.17v128.13c0,12.8-10.37,23.17-23.17,23.17Z"/>
  <path class="st0" d="M577.2,227.62c-12.8,0-23.17-10.37-23.17-23.17V76.33c0-12.8,10.37-23.17,23.17-23.17s23.17,10.37,23.17,23.17v128.13c0,12.8-10.37,23.17-23.17,23.17Z"/>
  <path class="st0" d="M617.93,99.5h-211.86c-12.8,0-23.17-10.37-23.17-23.17s10.37-23.17,23.17-23.17h211.86c12.8,0,23.17,10.37,23.17,23.17s-10.37,23.17-23.17,23.17Z"/>
</svg>